<svg width="60" height="60" viewBox="0 0 60 60" fill="none" xmlns="http://www.w3.org/2000/svg">
<path d="M6.09922 17.0807C5.27008 17.0807 4.4747 17.41 3.88857 17.9966C3.30204 18.5831 2.97266 19.3781 2.97266 20.2076V38.9675C2.97266 40.0847 3.56861 41.1169 4.53598 41.6755C5.50331 42.2338 6.69518 42.2338 7.66292 41.6755C8.63025 41.1169 9.22623 40.0847 9.22623 38.9675V20.2076C9.22623 19.3781 8.89686 18.5831 8.31032 17.9966C7.72419 17.41 6.92877 17.0807 6.09922 17.0807Z" fill="#C48468"/>
<path d="M20.5449 25.8203H39.3841V32.1052H20.5449V25.8203Z" fill="#C48468"/>
<path d="M14.902 12.0002C14.0728 12.0002 13.2774 12.3296 12.6913 12.9161C12.1048 13.5022 11.7754 14.2976 11.7754 15.1268V44.0333C11.7754 45.1502 12.3713 46.1824 13.3387 46.741C14.306 47.2996 15.4979 47.2996 16.4657 46.741C17.433 46.1823 18.029 45.1502 18.029 44.0333V15.1418C18.0329 14.3099 17.7055 13.5107 17.1186 12.9209C16.5316 12.3313 15.7343 11.9995 14.902 11.9995L14.902 12.0002Z" fill="#C48468"/>
<path d="M53.8457 17.0807C53.0162 17.0807 52.2208 17.41 51.6347 17.9966C51.0481 18.5831 50.7188 19.3781 50.7188 20.2076V38.9675C50.7188 40.0847 51.3147 41.1169 52.2821 41.6755C53.2498 42.2338 54.4417 42.2338 55.409 41.6755C56.3764 41.1169 56.9723 40.0847 56.9723 38.9675V20.2076C56.9723 19.3781 56.6429 18.5831 56.0564 17.9966C55.4703 17.41 54.6749 17.0807 53.8457 17.0807Z" fill="#C48468"/>
<path d="M45.043 12.0002C44.2134 12.0002 43.4185 12.3296 42.8319 12.9161C42.2454 13.5022 41.916 14.2976 41.916 15.1268V44.0333C41.916 45.1502 42.512 46.1824 43.4793 46.741C44.4471 47.2996 45.6389 47.2996 46.6063 46.741C47.5736 46.1823 48.1696 45.1502 48.1696 44.0333V15.1418C48.1739 14.3099 47.8461 13.5107 47.2592 12.9209C46.6727 12.3313 45.875 11.9995 45.043 11.9995L45.043 12.0002Z" fill="#C48468"/>
</svg>
