<svg width="56" height="56" viewBox="0 0 56 56" fill="none" xmlns="http://www.w3.org/2000/svg">
<path d="M52.0123 51.8677C51.4148 53.9577 49.4873 55.4002 47.3123 55.3502C40.1673 55.1827 32.9398 52.8202 26.1598 49.0852C22.2473 46.9327 18.5373 44.1701 15.1723 40.8076C11.8073 37.4451 9.06732 33.7602 6.91733 29.8601C3.17732 23.0876 0.819825 15.8426 0.649825 8.69015C0.597325 6.51515 2.03983 4.58515 4.13233 3.98765L15.4948 0.740148C16.6573 0.407648 17.8848 0.992649 18.3598 2.10265L23.9973 15.2551C24.4198 16.2426 24.1373 17.3876 23.3023 18.0651L16.9423 23.2226C18.6198 26.4726 20.8573 29.5626 23.6398 32.3451C26.4223 35.1276 29.5398 37.3826 32.8048 39.0626L37.9373 32.7051C38.6123 31.8676 39.7623 31.5826 40.7498 32.0076L53.8973 37.6427C55.0073 38.1176 55.5923 39.3451 55.2598 40.5076L52.0123 51.8677Z" fill="#C48468"/>
</svg>
