<svg width="47" height="49" viewBox="0 0 47 49" fill="none" xmlns="http://www.w3.org/2000/svg">
<path d="M3.90039 0.100008H43.5004C44.296 0.100008 45.0591 0.402909 45.6217 0.942076C46.1843 1.48124 46.5004 2.21251 46.5004 2.97501C46.5004 3.35256 46.4228 3.72641 46.272 4.07522C46.1213 4.42403 45.9003 4.74097 45.6217 5.00794C45.3431 5.27491 45.0124 5.48668 44.6484 5.63116C44.2845 5.77564 43.8944 5.85001 43.5004 5.85001H3.90039C3.50643 5.85001 3.11632 5.77564 2.75234 5.63116C2.38836 5.48668 2.05765 5.27491 1.77907 5.00794C1.50049 4.74097 1.27952 4.42403 1.12875 4.07522C0.977988 3.72641 0.900391 3.35256 0.900391 2.97501C0.900391 2.21251 1.21646 1.48124 1.77907 0.942076C2.34168 0.402909 3.10474 0.100008 3.90039 0.100008ZM3.90039 48.4H43.5004C44.296 48.4 45.0591 48.0971 45.6217 47.5579C46.1843 47.0188 46.5004 46.2875 46.5004 45.525C46.5004 44.7625 46.1843 44.0312 45.6217 43.4921C45.0591 42.9529 44.296 42.65 43.5004 42.65H3.90039C3.10474 42.65 2.34168 42.9529 1.77907 43.4921C1.21646 44.0312 0.900391 44.7625 0.900391 45.525C0.900391 46.2875 1.21646 47.0188 1.77907 47.5579C2.05765 47.8249 2.38836 48.0367 2.75234 48.1812C3.11632 48.3256 3.50643 48.4 3.90039 48.4ZM3.90039 27.125H43.5004C44.296 27.125 45.0591 26.8221 45.6217 26.2829C46.1843 25.7438 46.5004 25.0125 46.5004 24.25C46.5004 23.4875 46.1843 22.7562 45.6217 22.2171C45.0591 21.6779 44.296 21.375 43.5004 21.375H3.90039C3.10474 21.375 2.34168 21.6779 1.77907 22.2171C1.21646 22.7562 0.900391 23.4875 0.900391 24.25C0.900391 25.0125 1.21646 25.7438 1.77907 26.2829C2.05765 26.5499 2.38836 26.7617 2.75234 26.9062C3.11632 27.0506 3.50643 27.125 3.90039 27.125ZM24.3004 10.7375H3.90039C3.10474 10.7375 2.34168 11.0404 1.77907 11.5796C1.21646 12.1187 0.900391 12.85 0.900391 13.6125C0.900391 13.9901 0.977988 14.3639 1.12875 14.7127C1.27952 15.0615 1.50049 15.3785 1.77907 15.6454C2.05765 15.9124 2.38836 16.1242 2.75234 16.2687C3.11632 16.4131 3.50643 16.4875 3.90039 16.4875H24.3004C24.6944 16.4875 25.0845 16.4131 25.4484 16.2687C25.8124 16.1242 26.1431 15.9124 26.4217 15.6454C26.7003 15.3785 26.9213 15.0615 27.072 14.7127C27.2228 14.3639 27.3004 13.9901 27.3004 13.6125C27.3004 12.85 26.9843 12.1187 26.4217 11.5796C25.8591 11.0404 25.096 10.7375 24.3004 10.7375ZM24.3004 32.0125H3.90039C3.10474 32.0125 2.34168 32.3154 1.77907 32.8546C1.21646 33.3937 0.900391 34.125 0.900391 34.8875C0.900391 35.65 1.21646 36.3813 1.77907 36.9204C2.05765 37.1874 2.38836 37.3992 2.75234 37.5437C3.11632 37.6881 3.50643 37.7625 3.90039 37.7625H24.3004C25.096 37.7625 25.8591 37.4596 26.4217 36.9204C26.9843 36.3813 27.3004 35.65 27.3004 34.8875C27.3004 34.51 27.2228 34.1361 27.072 33.7873C26.9213 33.4385 26.7003 33.1215 26.4217 32.8546C26.1431 32.5876 25.8124 32.3758 25.4484 32.2314C25.0845 32.0869 24.6944 32.0125 24.3004 32.0125Z" fill="#C48468"/>
</svg>
